<svg class="buttonSVG" width="100" height="100" viewBox="0 0 100 100" fill="none" xmlns="http://www.w3.org/2000/svg">
<circle class="circleOnSVG" cx="50" cy="50" r="50" fill="#C4C4C4"/>
<path class="barOnSVG" d="M45 30.5C45 27.4624 47.4624 25 50.5 25C53.5376 25 56 27.4624 56 30.5V70.5C56 73.5376 53.5376 76 50.5 76C47.4624 76 45 73.5376 45 70.5V30.5Z" fill="#36454F"/>
<path class="barOnSVG" d="M30.5 56C27.4624 56 25 53.5376 25 50.5C25 47.4624 27.4624 45 30.5 45H70.5C73.5376 45 76 47.4624 76 50.5C76 53.5376 73.5376 56 70.5 56H30.5Z" fill="#36454F"/>
</svg>
