<svg width="100" height="100" viewBox="0 0 100 100" fill="none" xmlns="http://www.w3.org/2000/svg">
<path fill-rule="evenodd" clip-rule="evenodd" d="M50 89C71.5391 89 89 71.5391 89 50C89 28.4609 71.5391 11 50 11C28.4609 11 11 28.4609 11 50C11 71.5391 28.4609 89 50 89ZM50 85.6571C69.6929 85.6571 85.6571 69.6929 85.6571 50C85.6571 30.3071 69.6929 14.3429 50 14.3429C30.3071 14.3429 14.3429 30.3071 14.3429 50C14.3429 69.6929 30.3071 85.6571 50 85.6571Z" fill="black"/>
<path fill-rule="evenodd" clip-rule="evenodd" d="M83 50C83 68.2254 68.2254 83 50 83C31.7746 83 17 68.2254 17 50C17 31.7746 31.7746 17 50 17C68.2254 17 83 31.7746 83 50ZM47.7241 25.5345C47.7241 23.9633 48.9978 22.6897 50.569 22.6897C52.1401 22.6897 53.4138 23.9633 53.4138 25.5345V47H67.9138C69.4849 47 70.7586 48.2737 70.7586 49.8448C70.7586 51.416 69.4849 52.6897 67.9138 52.6897H50.8448C49.7676 52.6897 48.8302 52.0909 48.3473 51.208C47.9573 50.7212 47.7241 50.1033 47.7241 49.431V25.5345Z" fill="black"/>
<path fill-rule="evenodd" clip-rule="evenodd" d="M78.5733 28.6658C82.8492 27.5304 86 23.6331 86 19C86 13.4772 81.5229 9 76 9C70.7656 9 66.4705 13.0217 66.0361 18.1437C70.9882 20.6414 75.2784 24.2599 78.5733 28.6658Z" fill="black"/>
<path fill-rule="evenodd" clip-rule="evenodd" d="M33.9638 18.1437C29.0118 20.6414 24.7216 24.2598 21.4266 28.6658C17.1508 27.5304 14 23.6331 14 19C14 13.4772 18.4772 9 24 9C29.2344 9 33.5295 13.0217 33.9638 18.1437Z" fill="black"/>
<rect x="72" y="79.2426" width="6" height="14" rx="3" transform="rotate(-45 72 79.2426)" fill="black"/>
<rect x="24.8995" y="75" width="6" height="14" rx="3" transform="rotate(45 24.8995 75)" fill="black"/>
</svg>
