<svg width="52" height="36" viewBox="0 0 52 36" fill="none" xmlns="http://www.w3.org/2000/svg">
<rect x="4" y="4" width="44" height="28" rx="3" fill="#141E24"/>
<path d="M15.2628 23H13.2855L16.2983 14.2727H18.6761L21.6847 23H19.7074L17.5213 16.267H17.4531L15.2628 23ZM15.1392 19.5696H19.8097V21.0099H15.1392V19.5696ZM22.7351 23V14.2727H26.1783C26.8402 14.2727 27.4041 14.3991 27.87 14.652C28.3359 14.902 28.6911 15.25 28.9354 15.696C29.1825 16.1392 29.3061 16.6506 29.3061 17.2301C29.3061 17.8097 29.1811 18.321 28.9311 18.7642C28.6811 19.2074 28.3189 19.5526 27.8445 19.7997C27.3729 20.0469 26.8018 20.1705 26.1314 20.1705H23.9368V18.6918H25.8331C26.1882 18.6918 26.4808 18.6307 26.7109 18.5085C26.9439 18.3835 27.1172 18.2116 27.2308 17.9929C27.3473 17.7713 27.4055 17.517 27.4055 17.2301C27.4055 16.9403 27.3473 16.6875 27.2308 16.4716C27.1172 16.2528 26.9439 16.0838 26.7109 15.9645C26.478 15.8423 26.1825 15.7812 25.8246 15.7812H24.5803V23H22.7351ZM30.5046 23V14.2727H32.3498V18.1207H32.4648L35.6055 14.2727H37.8171L34.5785 18.1804L37.8555 23H35.6481L33.2575 19.4119L32.3498 20.5199V23H30.5046Z" fill="white"/>
</svg>
