<svg width="100" height="100" viewBox="0 0 100 100" fill="none" xmlns="http://www.w3.org/2000/svg">
<circle cx="50" cy="50" r="50" fill="#C4C4C4"/>
<path d="M46.8492 79.7695C42.944 83.6748 36.6123 83.6748 32.7071 79.7695L31.2929 78.3553C27.3876 74.4501 27.3876 68.1184 31.2929 64.2132L53.2132 42.2929C57.1184 38.3876 63.4501 38.3876 67.3553 42.2929L68.7695 43.7071C72.6748 47.6123 72.6748 53.944 68.7695 57.8492L46.8492 79.7695Z" fill="#36454F"/>
<path d="M31.0711 36.6274C27.1658 32.7222 27.1658 26.3905 31.0711 22.4853L32.4853 21.0711C36.3905 17.1658 42.7222 17.1658 46.6274 21.0711L68.5477 42.9914C72.453 46.8966 72.453 53.2283 68.5477 57.1335L67.1335 58.5477C63.2283 62.453 56.8966 62.453 52.9914 58.5477L31.0711 36.6274Z" fill="#36454F"/>
</svg>
