<svg width="100" height="100" viewBox="0 0 100 100" fill="none" xmlns="http://www.w3.org/2000/svg">
<path fill-rule="evenodd" clip-rule="evenodd" d="M50.5 93C71.2107 93 88 76.2107 88 55.5C88 34.7893 71.2107 18 50.5 18C29.7893 18 13 34.7893 13 55.5C13 76.2107 29.7893 93 50.5 93ZM50.5 88C68.4493 88 83 73.4493 83 55.5C83 37.5507 68.4493 23 50.5 23C32.5507 23 18 37.5507 18 55.5C18 73.4493 32.5507 88 50.5 88Z" fill="black"/>
<rect x="47" y="12" width="7" height="9" fill="black"/>
<rect x="43" y="14" width="6" height="15" transform="rotate(-90 43 14)" fill="black"/>
<path d="M42.9545 37.0909L49.9943 48.9886H50.267L57.3409 37.0909H65.6761L55.0227 54.5455L65.9148 72H57.4261L50.267 60.0852H49.9943L42.8352 72H34.3807L45.3068 54.5455L34.5852 37.0909H42.9545Z" fill="black"/>
</svg>
