<svg width="100" height="100" viewBox="0 0 100 100" fill="none" xmlns="http://www.w3.org/2000/svg">
<path fill-rule="evenodd" clip-rule="evenodd" d="M50 89C71.5391 89 89 71.5391 89 50C89 28.4609 71.5391 11 50 11C28.4609 11 11 28.4609 11 50C11 71.5391 28.4609 89 50 89ZM50 85.6571C69.6929 85.6571 85.6571 69.6929 85.6571 50C85.6571 30.3071 69.6929 14.3429 50 14.3429C30.3071 14.3429 14.3429 30.3071 14.3429 50C14.3429 69.6929 30.3071 85.6571 50 85.6571Z" fill="black"/>
<path fill-rule="evenodd" clip-rule="evenodd" d="M50 83C68.2254 83 83 68.2254 83 50C83 31.7746 68.2254 17 50 17C31.7746 17 17 31.7746 17 50C17 68.2254 31.7746 83 50 83ZM49.9943 43.9886L42.9545 32.0909H34.5852L45.3068 49.5455L34.3807 67H42.8352L49.9943 55.0852H50.267L57.4261 67H65.9148L55.0227 49.5455L65.6761 32.0909H57.3409L50.267 43.9886H49.9943Z" fill="black"/>
<path fill-rule="evenodd" clip-rule="evenodd" d="M78.5733 28.6658C82.8492 27.5304 86 23.6331 86 19C86 13.4772 81.5229 9 76 9C70.7656 9 66.4705 13.0217 66.0361 18.1437C70.9882 20.6414 75.2784 24.2599 78.5733 28.6658Z" fill="black"/>
<path fill-rule="evenodd" clip-rule="evenodd" d="M33.9638 18.1437C29.0118 20.6414 24.7216 24.2598 21.4266 28.6658C17.1508 27.5304 14 23.6331 14 19C14 13.4772 18.4772 9 24 9C29.2344 9 33.5295 13.0217 33.9638 18.1437Z" fill="black"/>
<rect x="72" y="79.2426" width="6" height="14" rx="3" transform="rotate(-45 72 79.2426)" fill="black"/>
<rect x="24.8995" y="75" width="6" height="14" rx="3" transform="rotate(45 24.8995 75)" fill="black"/>
</svg>
