<svg width="100" height="100" viewBox="0 0 100 100" fill="none" xmlns="http://www.w3.org/2000/svg">
<path fill-rule="evenodd" clip-rule="evenodd" d="M50 94C71.5391 94 89 76.5391 89 55C89 33.4609 71.5391 16 50 16C28.4609 16 11 33.4609 11 55C11 76.5391 28.4609 94 50 94ZM50 90.6571C69.6929 90.6571 85.6571 74.6929 85.6571 55C85.6571 35.3071 69.6929 19.3429 50 19.3429C30.3071 19.3429 14.3429 35.3071 14.3429 55C14.3429 74.6929 30.3071 90.6571 50 90.6571Z" fill="black"/>
<path fill-rule="evenodd" clip-rule="evenodd" d="M50 88C68.2254 88 83 73.2254 83 55C83 36.7746 68.2254 22 50 22C31.7746 22 17 36.7746 17 55C17 73.2254 31.7746 88 50 88ZM49.9943 48.9886L42.9545 37.0909H34.5852L45.3068 54.5455L34.3807 72H42.8352L49.9943 60.0852H50.267L57.4261 72H65.9148L55.0227 54.5455L65.6761 37.0909H57.3409L50.267 48.9886H49.9943Z" fill="black"/>
<rect x="47" y="6" width="6" height="12" rx="2" fill="black"/>
<rect x="43" y="11" width="5" height="14" rx="2" transform="rotate(-90 43 11)" fill="black"/>
</svg>
