<svg width="100" height="100" viewBox="0 0 100 100" fill="none" xmlns="http://www.w3.org/2000/svg">
<path fill-rule="evenodd" clip-rule="evenodd" d="M50 89C71.5391 89 89 71.5391 89 50C89 28.4609 71.5391 11 50 11C28.4609 11 11 28.4609 11 50C11 71.5391 28.4609 89 50 89ZM50 85.6571C69.6929 85.6571 85.6571 69.6929 85.6571 50C85.6571 30.3071 69.6929 14.3429 50 14.3429C30.3071 14.3429 14.3429 30.3071 14.3429 50C14.3429 69.6929 30.3071 85.6571 50 85.6571Z" fill="black"/>
<path fill-rule="evenodd" clip-rule="evenodd" d="M83 50C83 68.2254 68.2254 83 50 83C31.7746 83 17 68.2254 17 50C17 31.7746 31.7746 17 50 17C68.2254 17 83 31.7746 83 50ZM47.7241 25.5345C47.7241 23.9633 48.9978 22.6897 50.569 22.6897C52.1401 22.6897 53.4138 23.9633 53.4138 25.5345V49.431C53.4138 50.0573 53.2114 50.6362 52.8686 51.1062C52.7525 51.7397 52.4219 52.3375 51.8875 52.7811L38.7541 63.6835C37.5452 64.687 35.7516 64.5205 34.7481 63.3116C33.7446 62.1027 33.9111 60.3092 35.12 59.3056L47.7241 48.8426V25.5345Z" fill="black"/>
</svg>
