<svg width="100" height="100" viewBox="0 0 100 100" fill="none" xmlns="http://www.w3.org/2000/svg">
<path fill-rule="evenodd" clip-rule="evenodd" d="M21 18C13.268 18 7 24.268 7 32V69C7 76.732 13.268 83 21 83H80C87.732 83 94 76.732 94 69V32C94 24.268 87.732 18 80 18H21ZM18.064 60.04C19.024 60.8933 20.3573 61.32 22.064 61.32C23.7707 61.32 25.0933 60.8933 26.032 60.04C26.992 59.1867 27.664 57.9067 28.048 56.2C28.4533 54.4933 28.656 52.36 28.656 49.8C28.656 47.24 28.4533 45.1067 28.048 43.4C27.664 41.672 26.992 40.3813 26.032 39.528C25.0933 38.6747 23.7707 38.248 22.064 38.248C20.3573 38.248 19.024 38.6747 18.064 39.528C17.104 40.3813 16.4213 41.672 16.016 43.4C15.632 45.1067 15.44 47.24 15.44 49.8C15.44 52.36 15.632 54.4933 16.016 56.2C16.4213 57.9067 17.104 59.1867 18.064 60.04ZM23.92 57.32C23.472 57.8107 22.8533 58.056 22.064 58.056C21.2747 58.056 20.6453 57.8107 20.176 57.32C19.7067 56.808 19.3653 55.9547 19.152 54.76C18.96 53.5653 18.864 51.912 18.864 49.8C18.864 47.6667 18.96 46.0027 19.152 44.808C19.3653 43.6133 19.7067 42.7707 20.176 42.28C20.6453 41.768 21.2747 41.512 22.064 41.512C22.8533 41.512 23.472 41.768 23.92 42.28C24.3893 42.7707 24.7307 43.6133 24.944 44.808C25.1573 46.0027 25.264 47.6667 25.264 49.8C25.264 51.912 25.1573 53.5653 24.944 54.76C24.7307 55.9547 24.3893 56.808 23.92 57.32ZM34.1265 60.04C35.0865 60.8933 36.4198 61.32 38.1265 61.32C39.8332 61.32 41.1558 60.8933 42.0945 60.04C43.0545 59.1867 43.7265 57.9067 44.1105 56.2C44.5158 54.4933 44.7185 52.36 44.7185 49.8C44.7185 47.24 44.5158 45.1067 44.1105 43.4C43.7265 41.672 43.0545 40.3813 42.0945 39.528C41.1558 38.6747 39.8332 38.248 38.1265 38.248C36.4198 38.248 35.0865 38.6747 34.1265 39.528C33.1665 40.3813 32.4838 41.672 32.0785 43.4C31.6945 45.1067 31.5025 47.24 31.5025 49.8C31.5025 52.36 31.6945 54.4933 32.0785 56.2C32.4838 57.9067 33.1665 59.1867 34.1265 60.04ZM39.9825 57.32C39.5345 57.8107 38.9158 58.056 38.1265 58.056C37.3372 58.056 36.7078 57.8107 36.2385 57.32C35.7692 56.808 35.4278 55.9547 35.2145 54.76C35.0225 53.5653 34.9265 51.912 34.9265 49.8C34.9265 47.6667 35.0225 46.0027 35.2145 44.808C35.4278 43.6133 35.7692 42.7707 36.2385 42.28C36.7078 41.768 37.3372 41.512 38.1265 41.512C38.9158 41.512 39.5345 41.768 39.9825 42.28C40.4518 42.7707 40.7932 43.6133 41.0065 44.808C41.2198 46.0027 41.3265 47.6667 41.3265 49.8C41.3265 51.912 41.2198 53.5653 41.0065 54.76C40.7932 55.9547 40.4518 56.808 39.9825 57.32ZM48.525 60.648C49.0157 61.1173 49.5917 61.352 50.253 61.352C50.9143 61.352 51.4797 61.1173 51.949 60.648C52.4397 60.1787 52.685 59.6133 52.685 58.952C52.685 58.2693 52.4397 57.6933 51.949 57.224C51.4797 56.7547 50.9143 56.52 50.253 56.52C49.5917 56.52 49.0157 56.7547 48.525 57.224C48.0557 57.6933 47.821 58.2693 47.821 58.952C47.821 59.6133 48.0557 60.1787 48.525 60.648ZM48.525 49.32C49.0157 49.7893 49.5917 50.024 50.253 50.024C50.9143 50.024 51.4797 49.7893 51.949 49.32C52.4397 48.8507 52.685 48.2853 52.685 47.624C52.685 46.9413 52.4397 46.376 51.949 45.928C51.4797 45.4587 50.9143 45.224 50.253 45.224C49.5917 45.224 49.0157 45.4587 48.525 45.928C48.0557 46.376 47.821 46.9413 47.821 47.624C47.821 48.2853 48.0557 48.8507 48.525 49.32ZM58.439 60.04C59.399 60.8933 60.7323 61.32 62.439 61.32C64.1457 61.32 65.4683 60.8933 66.407 60.04C67.367 59.1867 68.039 57.9067 68.423 56.2C68.8283 54.4933 69.031 52.36 69.031 49.8C69.031 47.24 68.8283 45.1067 68.423 43.4C68.039 41.672 67.367 40.3813 66.407 39.528C65.4683 38.6747 64.1457 38.248 62.439 38.248C60.7323 38.248 59.399 38.6747 58.439 39.528C57.479 40.3813 56.7963 41.672 56.391 43.4C56.007 45.1067 55.815 47.24 55.815 49.8C55.815 52.36 56.007 54.4933 56.391 56.2C56.7963 57.9067 57.479 59.1867 58.439 60.04ZM64.295 57.32C63.847 57.8107 63.2283 58.056 62.439 58.056C61.6497 58.056 61.0203 57.8107 60.551 57.32C60.0817 56.808 59.7403 55.9547 59.527 54.76C59.335 53.5653 59.239 51.912 59.239 49.8C59.239 47.6667 59.335 46.0027 59.527 44.808C59.7403 43.6133 60.0817 42.7707 60.551 42.28C61.0203 41.768 61.6497 41.512 62.439 41.512C63.2283 41.512 63.847 41.768 64.295 42.28C64.7643 42.7707 65.1057 43.6133 65.319 44.808C65.5323 46.0027 65.639 47.6667 65.639 49.8C65.639 51.912 65.5323 53.5653 65.319 54.76C65.1057 55.9547 64.7643 56.808 64.295 57.32ZM74.5015 60.04C75.4615 60.8933 76.7948 61.32 78.5015 61.32C80.2082 61.32 81.5308 60.8933 82.4695 60.04C83.4295 59.1867 84.1015 57.9067 84.4855 56.2C84.8908 54.4933 85.0935 52.36 85.0935 49.8C85.0935 47.24 84.8908 45.1067 84.4855 43.4C84.1015 41.672 83.4295 40.3813 82.4695 39.528C81.5308 38.6747 80.2082 38.248 78.5015 38.248C76.7948 38.248 75.4615 38.6747 74.5015 39.528C73.5415 40.3813 72.8588 41.672 72.4535 43.4C72.0695 45.1067 71.8775 47.24 71.8775 49.8C71.8775 52.36 72.0695 54.4933 72.4535 56.2C72.8588 57.9067 73.5415 59.1867 74.5015 60.04ZM80.3575 57.32C79.9095 57.8107 79.2908 58.056 78.5015 58.056C77.7122 58.056 77.0828 57.8107 76.6135 57.32C76.1442 56.808 75.8028 55.9547 75.5895 54.76C75.3975 53.5653 75.3015 51.912 75.3015 49.8C75.3015 47.6667 75.3975 46.0027 75.5895 44.808C75.8028 43.6133 76.1442 42.7707 76.6135 42.28C77.0828 41.768 77.7122 41.512 78.5015 41.512C79.2908 41.512 79.9095 41.768 80.3575 42.28C80.8268 42.7707 81.1682 43.6133 81.3815 44.808C81.5948 46.0027 81.7015 47.6667 81.7015 49.8C81.7015 51.912 81.5948 53.5653 81.3815 54.76C81.1682 55.9547 80.8268 56.808 80.3575 57.32Z" fill="black"/>
</svg>
