<svg width="100" height="100" viewBox="0 0 100 100" fill="none" xmlns="http://www.w3.org/2000/svg">
<g clip-path="url(#clip0_0_1)">
<circle cx="50" cy="50" r="50" fill="#C4C4C4"/>
<path d="M25 42.5781V30.4688C25 29.1699 26.1942 28.125 27.6786 28.125H41.5179C42.2545 28.125 42.8571 28.6523 42.8571 29.2969V33.2031C42.8571 33.8477 42.2545 34.375 41.5179 34.375H32.1429V42.5781C32.1429 43.2227 31.5402 43.75 30.8036 43.75H26.3393C25.6027 43.75 25 43.2227 25 42.5781ZM57.1429 29.2969V33.2031C57.1429 33.8477 57.7455 34.375 58.4821 34.375H67.8571V42.5781C67.8571 43.2227 68.4598 43.75 69.1964 43.75H73.6607C74.3973 43.75 75 43.2227 75 42.5781V30.4688C75 29.1699 73.8058 28.125 72.3214 28.125H58.4821C57.7455 28.125 57.1429 28.6523 57.1429 29.2969ZM73.6607 56.25H69.1964C68.4598 56.25 67.8571 56.7773 67.8571 57.4219V65.625H58.4821C57.7455 65.625 57.1429 66.1523 57.1429 66.7969V70.7031C57.1429 71.3477 57.7455 71.875 58.4821 71.875H72.3214C73.8058 71.875 75 70.8301 75 69.5312V57.4219C75 56.7773 74.3973 56.25 73.6607 56.25ZM42.8571 70.7031V66.7969C42.8571 66.1523 42.2545 65.625 41.5179 65.625H32.1429V57.4219C32.1429 56.7773 31.5402 56.25 30.8036 56.25H26.3393C25.6027 56.25 25 56.7773 25 57.4219V69.5312C25 70.8301 26.1942 71.875 27.6786 71.875H41.5179C42.2545 71.875 42.8571 71.3477 42.8571 70.7031Z" fill="#36454F"/>
</g>
<defs>
<clipPath id="clip0_0_1">
<rect width="100" height="100" fill="white"/>
</clipPath>
</defs>
</svg>
