<svg width="100" height="100" viewBox="0 0 100 100" fill="none" xmlns="http://www.w3.org/2000/svg">
<g clip-path="url(#clip0_0_1)">
<circle cx="50" cy="50" r="50" fill="#C4C4C4"/>
<path d="M20 40.8516V25.1094C20 23.4209 21.433 22.0625 23.2143 22.0625H39.8214C40.7054 22.0625 41.4286 22.748 41.4286 23.5859V28.6641C41.4286 29.502 40.7054 30.1875 39.8214 30.1875H28.5714V40.8516C28.5714 41.6895 27.8482 42.375 26.9643 42.375H21.6071C20.7232 42.375 20 41.6895 20 40.8516ZM58.5714 23.5859V28.6641C58.5714 29.502 59.2946 30.1875 60.1786 30.1875H71.4286V40.8516C71.4286 41.6895 72.1518 42.375 73.0357 42.375H78.3929C79.2768 42.375 80 41.6895 80 40.8516V25.1094C80 23.4209 78.567 22.0625 76.7857 22.0625H60.1786C59.2946 22.0625 58.5714 22.748 58.5714 23.5859ZM78.3929 58.625H73.0357C72.1518 58.625 71.4286 59.3105 71.4286 60.1484V70.8125H60.1786C59.2946 70.8125 58.5714 71.498 58.5714 72.3359V77.4141C58.5714 78.252 59.2946 78.9375 60.1786 78.9375H76.7857C78.567 78.9375 80 77.5791 80 75.8906V60.1484C80 59.3105 79.2768 58.625 78.3929 58.625ZM41.4286 77.4141V72.3359C41.4286 71.498 40.7054 70.8125 39.8214 70.8125H28.5714V60.1484C28.5714 59.3105 27.8482 58.625 26.9643 58.625H21.6071C20.7232 58.625 20 59.3105 20 60.1484V75.8906C20 77.5791 21.433 78.9375 23.2143 78.9375H39.8214C40.7054 78.9375 41.4286 78.252 41.4286 77.4141Z" fill="#36454F"/>
</g>
<defs>
<clipPath id="clip0_0_1">
<rect width="100" height="100" fill="white"/>
</clipPath>
</defs>
</svg>
