<svg width="100" height="100" viewBox="0 0 100 100" fill="none" xmlns="http://www.w3.org/2000/svg">
<path d="M73.6607 42.8571H59.8214C58.3371 42.8571 57.1429 41.6629 57.1429 40.1786V26.3393C57.1429 25.6027 57.7455 25 58.4821 25H62.9464C63.683 25 64.2857 25.6027 64.2857 26.3393V35.7143H73.6607C74.3973 35.7143 75 36.317 75 37.0536V41.5179C75 42.2545 74.3973 42.8571 73.6607 42.8571ZM42.8571 40.1786V26.3393C42.8571 25.6027 42.2545 25 41.5179 25H37.0536C36.317 25 35.7143 25.6027 35.7143 26.3393V35.7143H26.3393C25.6027 35.7143 25 36.317 25 37.0536V41.5179C25 42.2545 25.6027 42.8571 26.3393 42.8571H40.1786C41.6629 42.8571 42.8571 41.6629 42.8571 40.1786ZM42.8571 73.6607V59.8214C42.8571 58.3371 41.6629 57.1429 40.1786 57.1429H26.3393C25.6027 57.1429 25 57.7455 25 58.4821V62.9464C25 63.683 25.6027 64.2857 26.3393 64.2857H35.7143V73.6607C35.7143 74.3973 36.317 75 37.0536 75H41.5179C42.2545 75 42.8571 74.3973 42.8571 73.6607ZM64.2857 73.6607V64.2857H73.6607C74.3973 64.2857 75 63.683 75 62.9464V58.4821C75 57.7455 74.3973 57.1429 73.6607 57.1429H59.8214C58.3371 57.1429 57.1429 58.3371 57.1429 59.8214V73.6607C57.1429 74.3973 57.7455 75 58.4821 75H62.9464C63.683 75 64.2857 74.3973 64.2857 73.6607Z" fill="#36454F"/>
</svg>
