<svg width="100" height="100" viewBox="0 0 100 100" fill="none" xmlns="http://www.w3.org/2000/svg">
<circle cx="50" cy="50" r="50" fill="#C4C4C4"/>
<path d="M33 30.5C33 27.4624 35.4624 25 38.5 25V25C41.5376 25 44 27.4624 44 30.5V70.5C44 73.5376 41.5376 76 38.5 76V76C35.4624 76 33 73.5376 33 70.5V30.5Z" fill="#36454F"/>
<path d="M56 30.5C56 27.4624 58.4624 25 61.5 25V25C64.5376 25 67 27.4624 67 30.5V70.5C67 73.5376 64.5376 76 61.5 76V76C58.4624 76 56 73.5376 56 70.5V30.5Z" fill="#36454F"/>
</svg>
