<svg width="51" height="36" viewBox="0 0 51 36" fill="none" xmlns="http://www.w3.org/2000/svg">
<rect x="3" y="4" width="44" height="28" rx="3" fill="#141E24"/>
<path d="M11.7585 23V14.2727H15.2017C15.8636 14.2727 16.4276 14.3991 16.8935 14.652C17.3594 14.902 17.7145 15.25 17.9588 15.696C18.206 16.1392 18.3295 16.6506 18.3295 17.2301C18.3295 17.8097 18.2045 18.321 17.9545 18.7642C17.7045 19.2074 17.3423 19.5526 16.8679 19.7997C16.3963 20.0469 15.8253 20.1705 15.1548 20.1705H12.9602V18.6918H14.8565C15.2116 18.6918 15.5043 18.6307 15.7344 18.5085C15.9673 18.3835 16.1406 18.2116 16.2543 17.9929C16.3707 17.7713 16.429 17.517 16.429 17.2301C16.429 16.9403 16.3707 16.6875 16.2543 16.4716C16.1406 16.2528 15.9673 16.0838 15.7344 15.9645C15.5014 15.8423 15.206 15.7812 14.848 15.7812H13.6037V23H11.7585ZM21.4925 23L18.9954 14.2727H21.011L22.4556 20.3366H22.5281L24.1218 14.2727H25.8477L27.4371 20.3494H27.5138L28.9585 14.2727H30.9741L28.4769 23H26.6786L25.0167 17.294H24.9485L23.2908 23H21.4925ZM32.587 23H30.6097L33.6225 14.2727H36.0004L39.0089 23H37.0316L34.8455 16.267H34.7773L32.587 23ZM32.4634 19.5696H37.1339V21.0099H32.4634V19.5696Z" fill="white"/>
</svg>
