<svg width="512" height="512" viewBox="0 0 512 512" fill="none" xmlns="http://www.w3.org/2000/svg">
<rect width="512" height="512" rx="256" fill="white"/>
<path fill-rule="evenodd" clip-rule="evenodd" d="M255.5 455C365.681 455 455 365.681 455 255.5C455 145.319 365.681 56 255.5 56C145.319 56 56 145.319 56 255.5C56 365.681 145.319 455 255.5 455ZM255.5 437.9C356.237 437.9 437.9 356.237 437.9 255.5C437.9 154.763 356.237 73.1 255.5 73.1C154.763 73.1 73.1 154.763 73.1 255.5C73.1 356.237 154.763 437.9 255.5 437.9Z" fill="black"/>
<path fill-rule="evenodd" clip-rule="evenodd" d="M425 256C425 349.336 349.336 425 256 425C162.664 425 87 349.336 87 256C87 162.664 162.664 87 256 87C349.336 87 425 162.664 425 256ZM241 140.569C241 132.523 247.523 126 255.569 126C263.615 126 270.138 132.523 270.138 140.569V262.948C270.138 267.211 268.307 271.047 265.389 273.711C264.525 275.98 263.082 278.064 261.08 279.725L193.821 335.559C187.63 340.698 178.445 339.845 173.306 333.654C168.166 327.463 169.019 318.278 175.21 313.139L241 258.525V140.569Z" fill="black"/>
</svg>
