<svg width="100" height="100" viewBox="0 0 100 100" fill="none" xmlns="http://www.w3.org/2000/svg">
<path fill-rule="evenodd" clip-rule="evenodd" d="M50 77C64.9117 77 77 64.9117 77 50C77 35.0883 64.9117 23 50 23C35.0883 23 23 35.0883 23 50C23 64.9117 35.0883 77 50 77ZM50.5 68C60.165 68 68 60.165 68 50.5C68 40.835 60.165 33 50.5 33C40.835 33 33 40.835 33 50.5C33 60.165 40.835 68 50.5 68Z" fill="black"/>
<circle cx="50.5" cy="50.5" r="10" fill="black"/>
<rect x="43" y="9" width="14" height="17" rx="3" fill="black"/>
<rect x="43" y="74" width="14" height="17" rx="3" fill="black"/>
<rect x="25.9584" y="83.9411" width="14" height="17" rx="3" transform="rotate(-135 25.9584 83.9411)" fill="black"/>
<rect x="71.9203" y="37.9792" width="14" height="17" rx="3" transform="rotate(-135 71.9203 37.9792)" fill="black"/>
<rect x="9" y="57" width="14" height="17" rx="3" transform="rotate(-90 9 57)" fill="black"/>
<rect x="74" y="57" width="14" height="17" rx="3" transform="rotate(-90 74 57)" fill="black"/>
<rect x="16.0589" y="25.9584" width="14" height="17" rx="3" transform="rotate(-45 16.0589 25.9584)" fill="black"/>
<rect x="62.0208" y="71.9203" width="14" height="17" rx="3" transform="rotate(-45 62.0208 71.9203)" fill="black"/>
</svg>
