<svg width="100" height="100" viewBox="0 0 100 100" fill="none" xmlns="http://www.w3.org/2000/svg">
<path fill-rule="evenodd" clip-rule="evenodd" d="M50 77C64.9117 77 77 64.9117 77 50C77 35.0883 64.9117 23 50 23C35.0883 23 23 35.0883 23 50C23 64.9117 35.0883 77 50 77ZM50.5 69C60.7173 69 69 60.7173 69 50.5C69 40.2827 60.7173 32 50.5 32C40.2827 32 32 40.2827 32 50.5C32 60.7173 40.2827 69 50.5 69Z" fill="black"/>
<path fill-rule="evenodd" clip-rule="evenodd" d="M50.5 64C57.9558 64 64 57.9558 64 50.5C64 43.0442 57.9558 37 50.5 37C43.0442 37 37 43.0442 37 50.5C37 57.9558 43.0442 64 50.5 64ZM50.5 59C55.1944 59 59 55.1944 59 50.5C59 45.8056 55.1944 42 50.5 42C45.8056 42 42 45.8056 42 50.5C42 55.1944 45.8056 59 50.5 59Z" fill="black"/>
<rect x="43" y="9" width="14" height="17" rx="3" fill="black"/>
<rect x="43" y="74" width="14" height="17" rx="3" fill="black"/>
<rect x="25.9584" y="83.9411" width="14" height="17" rx="3" transform="rotate(-135 25.9584 83.9411)" fill="black"/>
<rect x="71.9203" y="37.9792" width="14" height="17" rx="3" transform="rotate(-135 71.9203 37.9792)" fill="black"/>
<rect x="9" y="57" width="14" height="17" rx="3" transform="rotate(-90 9 57)" fill="black"/>
<rect x="74" y="57" width="14" height="17" rx="3" transform="rotate(-90 74 57)" fill="black"/>
<rect x="16.0589" y="25.9584" width="14" height="17" rx="3" transform="rotate(-45 16.0589 25.9584)" fill="black"/>
<rect x="62.0208" y="71.9203" width="14" height="17" rx="3" transform="rotate(-45 62.0208 71.9203)" fill="black"/>
</svg>
