<svg width="100" height="100" viewBox="0 0 100 100" fill="none" xmlns="http://www.w3.org/2000/svg">
<path fill-rule="evenodd" clip-rule="evenodd" d="M50.5 86C71.2107 86 88 69.2107 88 48.5C88 27.7893 71.2107 11 50.5 11C29.7893 11 13 27.7893 13 48.5C13 69.2107 29.7893 86 50.5 86ZM50.5 81C68.4493 81 83 66.4493 83 48.5C83 30.5507 68.4493 16 50.5 16C32.5507 16 18 30.5507 18 48.5C18 66.4493 32.5507 81 50.5 81Z" fill="black"/>
<rect x="19.6737" y="85.3263" width="15.4614" height="6" transform="rotate(-45 19.6737 85.3263)" fill="black"/>
<rect x="70" y="74.3934" width="15.4614" height="6" transform="rotate(45 70 74.3934)" fill="black"/>
<path fill-rule="evenodd" clip-rule="evenodd" d="M78.6813 32.3006C82.3824 30.8344 85 27.2229 85 23C85 17.4772 80.5229 13 75 13C70.6363 13 66.9255 15.795 65.56 19.6924C71.0403 22.5633 75.6002 26.9522 78.6813 32.3006Z" fill="black"/>
<path fill-rule="evenodd" clip-rule="evenodd" d="M34.5893 20.1544C29.3911 23.0785 25.0785 27.3911 22.1544 32.5893C18.0178 31.3636 15 27.5342 15 23C15 17.4772 19.4772 13 25 13C29.5342 13 33.3636 16.0178 34.5893 20.1544Z" fill="black"/>
<path d="M40.7148 68.0801V69H34.9375V68.0801H40.7148ZM40.5273 61.2891L35.207 69H34.5098V68.1562L39.8242 60.4688H40.5273V61.2891ZM40.0469 60.4688V61.3945H34.5859V60.4688H40.0469Z" fill="black"/>
<path d="M51.0723 57.6201V59H42.4062V57.6201H51.0723ZM50.791 47.4336L42.8105 59H41.7646V57.7344L49.7363 46.2031H50.791V47.4336ZM50.0703 46.2031V47.5918H41.8789V46.2031H50.0703Z" fill="black"/>
<path d="M66.4297 43.1602V45H54.875V43.1602H66.4297ZM66.0547 29.5781L55.4141 45H54.0195V43.3125L64.6484 27.9375H66.0547V29.5781ZM65.0938 27.9375V29.7891H54.1719V27.9375H65.0938Z" fill="black"/>
</svg>
