<svg width="100" height="100" viewBox="0 0 100 100" fill="none" xmlns="http://www.w3.org/2000/svg">
<path fill-rule="evenodd" clip-rule="evenodd" d="M50 92C71.5391 92 89 74.5391 89 53C89 31.4609 71.5391 14 50 14C28.4609 14 11 31.4609 11 53C11 74.5391 28.4609 92 50 92ZM50 88.6571C69.6929 88.6571 85.6571 72.6929 85.6571 53C85.6571 33.3071 69.6929 17.3429 50 17.3429C30.3071 17.3429 14.3429 33.3071 14.3429 53C14.3429 72.6929 30.3071 88.6571 50 88.6571Z" fill="black"/>
<path fill-rule="evenodd" clip-rule="evenodd" d="M83 53C83 71.2254 68.2254 86 50 86C31.7746 86 17 71.2254 17 53C17 34.7746 31.7746 20 50 20C68.2254 20 83 34.7746 83 53ZM47.7241 28.5345C47.7241 26.9633 48.9978 25.6897 50.569 25.6897C52.1401 25.6897 53.4138 26.9633 53.4138 28.5345V45.679L61.0812 38.0116C62.1922 36.9006 63.9934 36.9006 65.1044 38.0116C66.2153 39.1226 66.2153 40.9238 65.1044 42.0348L53.0348 54.1044C52.8657 54.2735 52.6806 54.4168 52.4844 54.5345C51.9789 54.995 51.3067 55.2759 50.569 55.2759C48.9978 55.2759 47.7241 54.0022 47.7241 52.431V28.5345Z" fill="black"/>
<rect x="47" y="4" width="6" height="12" rx="2" fill="black"/>
<rect x="43" y="9" width="5" height="14" rx="2" transform="rotate(-90 43 9)" fill="black"/>
</svg>
