<svg width="100" height="100" viewBox="0 0 100 100" fill="none" xmlns="http://www.w3.org/2000/svg">
<path fill-rule="evenodd" clip-rule="evenodd" d="M50 89C71.5391 89 89 71.5391 89 50C89 28.4609 71.5391 11 50 11C28.4609 11 11 28.4609 11 50C11 71.5391 28.4609 89 50 89ZM50 85.6571C69.6929 85.6571 85.6571 69.6929 85.6571 50C85.6571 30.3071 69.6929 14.3429 50 14.3429C30.3071 14.3429 14.3429 30.3071 14.3429 50C14.3429 69.6929 30.3071 85.6571 50 85.6571Z" fill="black"/>
<path fill-rule="evenodd" clip-rule="evenodd" d="M83 50C83 68.2254 68.2254 83 50 83C31.7746 83 17 68.2254 17 50C17 31.7746 31.7746 17 50 17C68.2254 17 83 31.7746 83 50ZM47.7241 25.5345C47.7241 23.9633 48.9978 22.6897 50.569 22.6897C52.1401 22.6897 53.4138 23.9633 53.4138 25.5345V42.679L61.0812 35.0116C62.1922 33.9006 63.9934 33.9006 65.1044 35.0116C66.2153 36.1226 66.2153 37.9238 65.1044 39.0348L53.0348 51.1044C52.8657 51.2735 52.6806 51.4168 52.4844 51.5345C51.9789 51.995 51.3067 52.2759 50.569 52.2759C48.9978 52.2759 47.7241 51.0022 47.7241 49.431V25.5345Z" fill="black"/>
<rect x="48" y="1" width="5" height="12" rx="2" fill="black"/>
<rect x="44" y="7" width="5" height="13" rx="2" transform="rotate(-90 44 7)" fill="black"/>
</svg>
