<svg width="100" height="100" viewBox="0 0 100 100" fill="none" xmlns="http://www.w3.org/2000/svg">
<mask id="path-1-inside-1_0_1" fill="white">
<path fill-rule="evenodd" clip-rule="evenodd" d="M56.2964 50.5L74.3157 86.25H26.6843L44.7036 50.5L26.6843 14.75H74.3157L56.2964 50.5Z"/>
</mask>
<path d="M56.2964 50.5L54.5104 49.5998L54.0567 50.5L54.5104 51.4002L56.2964 50.5ZM74.3157 86.25V88.25H77.5635L76.1017 85.3498L74.3157 86.25ZM26.6843 86.25L24.8983 85.3498L23.4365 88.25H26.6843V86.25ZM44.7036 50.5L46.4895 51.4002L46.9433 50.5L46.4895 49.5998L44.7036 50.5ZM26.6843 14.75V12.75H23.4365L24.8983 15.6502L26.6843 14.75ZM74.3157 14.75L76.1017 15.6502L77.5635 12.75H74.3157V14.75ZM54.5104 51.4002L72.5297 87.1502L76.1017 85.3498L58.0824 49.5998L54.5104 51.4002ZM74.3157 84.25H26.6843V88.25H74.3157V84.25ZM28.4703 87.1502L46.4895 51.4002L42.9176 49.5998L24.8983 85.3498L28.4703 87.1502ZM46.4895 49.5998L28.4703 13.8498L24.8983 15.6502L42.9176 51.4002L46.4895 49.5998ZM26.6843 16.75H74.3157V12.75H26.6843V16.75ZM72.5297 13.8498L54.5104 49.5998L58.0824 51.4002L76.1017 15.6502L72.5297 13.8498Z" fill="black" mask="url(#path-1-inside-1_0_1)"/>
<rect x="23" y="10" width="54" height="7" rx="3.5" fill="black"/>
<rect x="23" y="84" width="54" height="7" rx="3.5" fill="black"/>
<path d="M50.5 51L39.6747 30.75L61.3253 30.75L50.5 51Z" fill="black"/>
<path d="M50.5 59L67.3875 80.75H33.6125L50.5 59Z" fill="black"/>
</svg>
