<svg width="52" height="36" viewBox="0 0 52 36" fill="none" xmlns="http://www.w3.org/2000/svg">
<rect x="4" y="4" width="44" height="28" rx="3" fill="#141E24"/>
<path d="M13.8267 16.4545L11.5384 23H9.4929L7.20455 16.4545H9.12216L10.4815 21.1378H10.5497L11.9048 16.4545H13.8267ZM17.9645 23.1193C17.3281 23.1193 16.7614 23.0099 16.2642 22.7912C15.7699 22.5696 15.3793 22.2656 15.0923 21.8793C14.8082 21.4901 14.6619 21.0412 14.6534 20.5327H16.5114C16.5227 20.7457 16.5923 20.9332 16.7202 21.0952C16.8509 21.2543 17.0241 21.3778 17.2401 21.4659C17.456 21.554 17.6989 21.598 17.9688 21.598C18.25 21.598 18.4986 21.5483 18.7145 21.4489C18.9304 21.3494 19.0994 21.2116 19.2216 21.0355C19.3438 20.8594 19.4048 20.6562 19.4048 20.4261C19.4048 20.1932 19.3395 19.9872 19.2088 19.8082C19.081 19.6264 18.8963 19.4844 18.6548 19.3821C18.4162 19.2798 18.1321 19.2287 17.8026 19.2287H16.9886V17.8736H17.8026C18.081 17.8736 18.3267 17.8253 18.5398 17.7287C18.7557 17.6321 18.9233 17.4986 19.0426 17.3281C19.1619 17.1548 19.2216 16.9531 19.2216 16.723C19.2216 16.5043 19.169 16.3125 19.0639 16.1477C18.9616 15.9801 18.8168 15.8494 18.6293 15.7557C18.4446 15.6619 18.2287 15.6151 17.9815 15.6151C17.7315 15.6151 17.5028 15.6605 17.2955 15.7514C17.0881 15.8395 16.9219 15.9659 16.7969 16.1307C16.6719 16.2955 16.6051 16.4886 16.5966 16.7102H14.8281C14.8366 16.2074 14.9801 15.7642 15.2585 15.3807C15.5369 14.9972 15.9119 14.6974 16.3835 14.4815C16.858 14.2628 17.3935 14.1534 17.9901 14.1534C18.5923 14.1534 19.1193 14.2628 19.571 14.4815C20.0227 14.7003 20.3736 14.9957 20.6236 15.3679C20.8764 15.7372 21.0014 16.152 20.9986 16.6122C21.0014 17.1009 20.8494 17.5085 20.5426 17.8352C20.2386 18.1619 19.8423 18.3693 19.3537 18.4574V18.5256C19.9957 18.608 20.4844 18.831 20.8196 19.1946C21.1577 19.5554 21.3253 20.0071 21.3224 20.5497C21.3253 21.0469 21.1818 21.4886 20.892 21.875C20.6051 22.2614 20.2088 22.5653 19.7031 22.7869C19.1974 23.0085 18.6179 23.1193 17.9645 23.1193ZM23.4808 23.1108C23.1996 23.1108 22.9581 23.0114 22.7564 22.8125C22.5575 22.6108 22.4581 22.3693 22.4581 22.0881C22.4581 21.8097 22.5575 21.571 22.7564 21.3722C22.9581 21.1733 23.1996 21.0739 23.4808 21.0739C23.7536 21.0739 23.9922 21.1733 24.1967 21.3722C24.4013 21.571 24.5036 21.8097 24.5036 22.0881C24.5036 22.2756 24.4553 22.4474 24.3587 22.6037C24.2649 22.7571 24.1413 22.8807 23.9879 22.9744C23.8345 23.0653 23.6655 23.1108 23.4808 23.1108ZM25.9769 23V21.6705L29.0835 18.794C29.3477 18.5384 29.5692 18.3082 29.7482 18.1037C29.93 17.8991 30.0678 17.6989 30.1616 17.5028C30.2553 17.304 30.3022 17.0895 30.3022 16.8594C30.3022 16.6037 30.244 16.3835 30.1275 16.1989C30.011 16.0114 29.8519 15.8679 29.6502 15.7685C29.4485 15.6662 29.2198 15.6151 28.9641 15.6151C28.6971 15.6151 28.4641 15.669 28.2653 15.777C28.0664 15.8849 27.913 16.0398 27.805 16.2415C27.6971 16.4432 27.6431 16.6832 27.6431 16.9616H25.8917C25.8917 16.3906 26.021 15.8949 26.2795 15.4744C26.538 15.054 26.9002 14.7287 27.3661 14.4986C27.832 14.2685 28.369 14.1534 28.9769 14.1534C29.6019 14.1534 30.146 14.2642 30.609 14.4858C31.0749 14.7045 31.4371 15.0085 31.6957 15.3977C31.9542 15.7869 32.0835 16.233 32.0835 16.7358C32.0835 17.0653 32.0181 17.3906 31.8874 17.7116C31.7596 18.0327 31.5309 18.3892 31.2013 18.7812C30.8718 19.1705 30.4073 19.6378 29.8079 20.1832L28.5337 21.4318V21.4915H32.1985V23H25.9769ZM34.6136 23.1108C34.3324 23.1108 34.0909 23.0114 33.8892 22.8125C33.6903 22.6108 33.5909 22.3693 33.5909 22.0881C33.5909 21.8097 33.6903 21.571 33.8892 21.3722C34.0909 21.1733 34.3324 21.0739 34.6136 21.0739C34.8864 21.0739 35.125 21.1733 35.3295 21.3722C35.5341 21.571 35.6364 21.8097 35.6364 22.0881C35.6364 22.2756 35.5881 22.4474 35.4915 22.6037C35.3977 22.7571 35.2741 22.8807 35.1207 22.9744C34.9673 23.0653 34.7983 23.1108 34.6136 23.1108ZM40.18 23.1918C39.4471 23.1889 38.8164 23.0085 38.288 22.6506C37.7624 22.2926 37.3576 21.7741 37.0735 21.0952C36.7923 20.4162 36.6531 19.5994 36.6559 18.6449C36.6559 17.6932 36.7965 16.8821 37.0778 16.2116C37.3619 15.5412 37.7667 15.0312 38.2923 14.6818C38.8207 14.3295 39.4499 14.1534 40.18 14.1534C40.9102 14.1534 41.538 14.3295 42.0636 14.6818C42.592 15.0341 42.9982 15.5455 43.2823 16.2159C43.5664 16.8835 43.707 17.6932 43.7042 18.6449C43.7042 19.6023 43.5621 20.4205 43.2781 21.0994C42.9968 21.7784 42.5934 22.2969 42.0678 22.6548C41.5423 23.0128 40.913 23.1918 40.18 23.1918ZM40.18 21.6619C40.68 21.6619 41.0792 21.4105 41.3775 20.9077C41.6758 20.4048 41.8235 19.6506 41.8207 18.6449C41.8207 17.983 41.7525 17.4318 41.6161 16.9915C41.4826 16.5511 41.2923 16.2202 41.0451 15.9986C40.8008 15.777 40.5124 15.6662 40.18 15.6662C39.6829 15.6662 39.2852 15.9148 38.9869 16.4119C38.6886 16.9091 38.538 17.6534 38.5352 18.6449C38.5352 19.3153 38.6019 19.875 38.7354 20.3239C38.8718 20.7699 39.0636 21.1051 39.3107 21.3295C39.5579 21.5511 39.8477 21.6619 40.18 21.6619Z" fill="white"/>
</svg>
