<svg width="100" height="100" viewBox="0 0 100 100" fill="none" xmlns="http://www.w3.org/2000/svg">
<g clip-path="url(#clip0_0_1)">
<circle cx="50" cy="50" r="50" fill="#C4C4C4"/>
<path fill-rule="evenodd" clip-rule="evenodd" d="M77.1629 77.37C91.8076 62.7254 91.8076 38.9817 77.1629 24.337C62.5183 9.69238 38.7746 9.69238 24.1299 24.337C9.48528 38.9817 9.48528 62.7254 24.1299 77.37C38.7746 92.0147 62.5183 92.0147 77.1629 77.37ZM71.1525 72.0667C82.8683 60.351 82.8683 41.3561 71.1525 29.6403C59.4368 17.9246 40.4419 17.9246 28.7261 29.6403C17.0104 41.3561 17.0104 60.351 28.7261 72.0667C40.4419 83.7825 59.4368 83.7825 71.1525 72.0667Z" fill="#36454F"/>
<rect x="59.1317" y="36.0043" width="30" height="14" transform="rotate(-45 59.1317 36.0043)" fill="#C4C4C4"/>
<rect x="11.0485" y="75.6023" width="30" height="14" transform="rotate(-45 11.0485 75.6023)" fill="#C4C4C4"/>
<path d="M22.0086 68.8848L38.2306 68.5727L21.6965 85.1068L22.0086 68.8848Z" fill="#36454F"/>
<path d="M78.5772 32.1152L61.7428 33.0397L79.5016 15.2809L78.5772 32.1152Z" fill="#36454F"/>
</g>
<defs>
<clipPath id="clip0_0_1">
<rect width="100" height="100" fill="white"/>
</clipPath>
</defs>
</svg>
