<svg width="100" height="100" viewBox="0 0 100 100" fill="none" xmlns="http://www.w3.org/2000/svg">
<path fill-rule="evenodd" clip-rule="evenodd" d="M50.5 87C71.2107 87 88 70.2107 88 49.5C88 28.7893 71.2107 12 50.5 12C29.7893 12 13 28.7893 13 49.5C13 70.2107 29.7893 87 50.5 87ZM50.5 82C68.4493 82 83 67.4493 83 49.5C83 31.5507 68.4493 17 50.5 17C32.5507 17 18 31.5507 18 49.5C18 67.4493 32.5507 82 50.5 82Z" fill="black"/>
<rect x="49" y="21" width="3" height="28" fill="black"/>
<path d="M49.4715 47L51.929 48.7207L40.4575 65.1038L38 63.383L49.4715 47Z" fill="black"/>
</svg>
